<svg xmlns="http://www.w3.org/2000/svg" xmlns:xlink="http://www.w3.org/1999/xlink" width="800" zoomAndPan="magnify" viewBox="0 0 600 119.999999" height="160" preserveAspectRatio="xMidYMid meet" version="1.0"><defs><g/><clipPath id="0a16ec6456"><path d="M 14.34375 32.160156 L 201.785156 32.160156 L 201.785156 87.390625 L 14.34375 87.390625 Z M 14.34375 32.160156 " clip-rule="nonzero"/></clipPath><clipPath id="708e4ee877"><path d="M 23.574219 35 L 192.605469 35 L 192.605469 85.105469 L 23.574219 85.105469 Z M 23.574219 35 " clip-rule="nonzero"/></clipPath></defs><g clip-path="url(#0a16ec6456)"><path fill="#ff66c4" d="M 126 47.558594 C 126 47.558594 97.019531 36.992188 91.609375 36.871094 C 86.230469 36.746094 63.730469 40.527344 63.730469 40.527344 L 67.214844 45.808594 C 67.214844 45.808594 111.726562 49.863281 126 47.558594 Z M 165.28125 59.105469 C 158.339844 59.105469 152.746094 64.726562 152.746094 71.636719 C 152.746094 78.546875 158.339844 84.167969 165.28125 84.167969 C 172.1875 84.167969 177.78125 78.546875 177.78125 71.636719 C 177.78125 64.726562 172.1875 59.105469 165.28125 59.105469 Z M 165.28125 55.914062 C 156.597656 55.914062 149.566406 62.976562 149.566406 71.636719 C 149.566406 80.328125 156.597656 87.359375 165.28125 87.359375 C 173.933594 87.359375 180.960938 80.328125 180.960938 71.636719 C 180.960938 62.976562 173.933594 55.914062 165.28125 55.914062 Z M 43.800781 59.105469 C 36.890625 59.105469 31.296875 64.726562 31.296875 71.636719 C 31.296875 78.546875 36.890625 84.167969 43.800781 84.167969 C 50.738281 84.167969 56.332031 78.546875 56.332031 71.636719 C 56.332031 64.726562 50.738281 59.105469 43.800781 59.105469 Z M 43.800781 55.914062 C 35.148438 55.914062 28.089844 62.976562 28.089844 71.636719 C 28.089844 80.328125 35.148438 87.359375 43.800781 87.359375 C 52.484375 87.359375 59.511719 80.328125 59.511719 71.636719 C 59.511719 62.976562 52.484375 55.914062 43.800781 55.914062 Z M 201.625 65.984375 C 201.625 65.984375 179.769531 49.1875 173.046875 47.3125 C 166.289062 45.40625 136.914062 47.988281 136.914062 47.988281 C 136.914062 47.988281 108.332031 33.214844 100.65625 32.664062 C 92.984375 32.140625 72.078125 33.617188 65.078125 35.519531 C 58.046875 37.421875 16.535156 48.386719 16.535156 48.386719 C 16.535156 48.386719 14.515625 55.296875 14.667969 57.847656 C 14.792969 60.425781 19.375 76.273438 19.375 76.273438 L 27.449219 77.378906 C 26.835938 75.597656 26.46875 73.664062 26.46875 71.636719 C 26.46875 61.992188 34.292969 54.160156 43.953125 54.160156 C 53.582031 54.160156 61.40625 61.992188 61.40625 71.636719 C 61.40625 75.351562 60.246094 78.792969 58.292969 81.617188 L 60.765625 81.957031 L 151.1875 81.957031 C 149.046875 79.070312 147.792969 75.503906 147.792969 71.636719 C 147.792969 61.992188 155.621094 54.160156 165.28125 54.160156 C 174.910156 54.160156 182.734375 61.992188 182.734375 71.636719 C 182.734375 75.503906 181.480469 79.070312 179.34375 81.957031 L 185.976562 81.957031 C 185.976562 81.957031 197.039062 80.605469 197.039062 78.976562 C 197.039062 77.347656 201.625 65.984375 201.625 65.984375 " fill-opacity="1" fill-rule="evenodd"/></g><g clip-path="url(#708e4ee877)"><path fill="#1f66c6" d="M 124.265625 48.894531 C 124.265625 48.894531 98.128906 39.289062 93.25 39.175781 C 88.398438 39.066406 68.109375 42.5 68.109375 42.5 L 71.25 47.300781 C 71.25 47.300781 111.390625 50.988281 124.265625 48.894531 Z M 159.691406 59.390625 C 153.433594 59.390625 148.386719 64.5 148.386719 70.785156 C 148.386719 77.0625 153.433594 82.175781 159.691406 82.175781 C 165.921875 82.175781 170.964844 77.0625 170.964844 70.785156 C 170.964844 64.5 165.921875 59.390625 159.691406 59.390625 Z M 159.691406 56.488281 C 151.859375 56.488281 145.519531 62.910156 145.519531 70.785156 C 145.519531 78.683594 151.859375 85.078125 159.691406 85.078125 C 167.492188 85.078125 173.832031 78.683594 173.832031 70.785156 C 173.832031 62.910156 167.492188 56.488281 159.691406 56.488281 Z M 50.132812 59.390625 C 43.902344 59.390625 38.859375 64.5 38.859375 70.785156 C 38.859375 77.0625 43.902344 82.175781 50.132812 82.175781 C 56.390625 82.175781 61.4375 77.0625 61.4375 70.785156 C 61.4375 64.5 56.390625 59.390625 50.132812 59.390625 Z M 50.132812 56.488281 C 42.332031 56.488281 35.964844 62.910156 35.964844 70.785156 C 35.964844 78.683594 42.332031 85.078125 50.132812 85.078125 C 57.964844 85.078125 64.304688 78.683594 64.304688 70.785156 C 64.304688 62.910156 57.964844 56.488281 50.132812 56.488281 Z M 192.46875 65.644531 C 192.46875 65.644531 172.757812 50.371094 166.695312 48.667969 C 160.601562 46.9375 134.105469 49.285156 134.105469 49.285156 C 134.105469 49.285156 108.332031 35.855469 101.410156 35.351562 C 94.492188 34.878906 75.636719 36.21875 69.320312 37.949219 C 62.980469 39.679688 25.542969 49.648438 25.542969 49.648438 C 25.542969 49.648438 23.722656 55.929688 23.863281 58.246094 C 23.972656 60.589844 28.105469 75 28.105469 75 L 35.386719 76.003906 C 34.835938 74.382812 34.503906 72.625 34.503906 70.785156 C 34.503906 62.015625 41.5625 54.894531 50.273438 54.894531 C 58.957031 54.894531 66.011719 62.015625 66.011719 70.785156 C 66.011719 74.160156 64.964844 77.289062 63.203125 79.855469 L 65.433594 80.164062 L 146.980469 80.164062 C 145.050781 77.539062 143.921875 74.300781 143.921875 70.785156 C 143.921875 62.015625 150.980469 54.894531 159.691406 54.894531 C 168.375 54.894531 175.433594 62.015625 175.433594 70.785156 C 175.433594 74.300781 174.300781 77.539062 172.371094 80.164062 L 178.355469 80.164062 C 178.355469 80.164062 188.332031 78.9375 188.332031 77.457031 C 188.332031 75.976562 192.46875 65.644531 192.46875 65.644531 " fill-opacity="1" fill-rule="evenodd"/></g><g fill="#000000" fill-opacity="1"><g transform="translate(220.503829, 83.624733)"><g><path d="M 35.789062 0 L 46.472656 0 L 28.386719 -53.414062 L 18.464844 -53.414062 L 0.382812 0 L 11.066406 0 L 14.957031 -12.589844 L 31.898438 -12.589844 Z M 23.425781 -40.289062 L 29.074219 -21.746094 L 17.78125 -21.746094 Z M 23.425781 -40.289062 "/></g></g></g><g fill="#000000" fill-opacity="1"><g transform="translate(267.356843, 83.624733)"><g><path d="M 38.6875 0 L 38.6875 -38.460938 L 29.226562 -38.460938 L 29.226562 -23.121094 C 29.226562 -12.972656 25.027344 -7.476562 20.449219 -7.476562 C 17.246094 -7.476562 14.957031 -9.234375 14.957031 -13.8125 L 14.957031 -38.460938 L 5.496094 -38.460938 L 5.496094 -10.988281 C 5.496094 -3.28125 10.453125 0.609375 17.320312 0.609375 C 22.28125 0.609375 26.402344 -2.136719 29.226562 -6.179688 L 29.226562 0 Z M 38.6875 0 "/></g></g></g><g fill="#000000" fill-opacity="1"><g transform="translate(312.149543, 83.624733)"><g><path d="M 25.488281 -8.394531 C 24.191406 -7.707031 23.121094 -7.476562 21.824219 -7.476562 C 18.617188 -7.476562 16.789062 -9.003906 16.789062 -13.734375 L 16.789062 -30.371094 L 26.9375 -30.371094 L 26.9375 -38.460938 L 16.789062 -38.460938 L 16.789062 -54.027344 L 7.324219 -48.074219 L 7.324219 -38.460938 L 1.375 -38.460938 L 1.375 -30.371094 L 7.324219 -30.371094 L 7.324219 -13.582031 C 7.324219 -4.042969 12.742188 0.609375 21.441406 0.609375 C 23.503906 0.609375 25.5625 0.230469 27.699219 -0.761719 Z M 25.488281 -8.394531 "/></g></g></g><g fill="#000000" fill-opacity="1"><g transform="translate(342.062206, 83.624733)"><g><path d="M 3.28125 -19.230469 C 3.28125 -8.089844 10.453125 0.609375 22.816406 0.609375 C 35.179688 0.609375 42.351562 -8.089844 42.351562 -19.230469 C 42.351562 -30.371094 35.179688 -39.070312 22.816406 -39.070312 C 10.453125 -39.070312 3.28125 -30.371094 3.28125 -19.230469 Z M 13.203125 -19.230469 C 13.203125 -25.5625 16.710938 -30.980469 22.816406 -30.980469 C 28.921875 -30.980469 32.429688 -25.5625 32.429688 -19.230469 C 32.429688 -12.894531 28.921875 -7.476562 22.816406 -7.476562 C 16.710938 -7.476562 13.203125 -12.894531 13.203125 -19.230469 Z M 13.203125 -19.230469 "/></g></g></g><g fill="#000000" fill-opacity="1"><g transform="translate(387.694274, 83.624733)"><g><path d="M 28.082031 0 L 46.011719 -53.414062 L 35.023438 -53.414062 L 23.046875 -13.886719 L 11.066406 -53.414062 L 0.078125 -53.414062 L 18.007812 0 Z M 28.082031 0 "/></g></g></g><g fill="#000000" fill-opacity="1"><g transform="translate(433.784187, 83.624733)"><g><path d="M 39.679688 -20.070312 C 39.679688 -28.460938 34.566406 -39.070312 21.746094 -39.070312 C 8.546875 -39.070312 3.28125 -28.308594 3.28125 -19.230469 C 3.28125 -10.148438 8.546875 0.609375 21.746094 0.609375 C 31.058594 0.609375 36.246094 -3.816406 39.222656 -10.605469 L 31.589844 -13.429688 C 29.300781 -9.460938 26.632812 -7.476562 22.28125 -7.476562 C 16.40625 -7.476562 13.429688 -11.902344 13.203125 -16.175781 L 39.679688 -16.175781 Z M 21.746094 -30.980469 C 26.785156 -30.980469 29.148438 -27.472656 29.988281 -23.65625 L 13.429688 -23.65625 C 14.117188 -27.316406 16.941406 -30.980469 21.746094 -30.980469 Z M 21.746094 -30.980469 "/></g></g></g><g fill="#000000" fill-opacity="1"><g transform="translate(476.211346, 83.624733)"><g><path d="M 15.566406 0 L 15.566406 -13.660156 C 15.566406 -26.097656 20.375 -30.597656 25.867188 -30.597656 C 27.472656 -30.597656 28.691406 -30.21875 29.835938 -29.53125 L 31.589844 -38.304688 C 30.066406 -38.765625 28.617188 -39.070312 26.9375 -39.070312 C 22.585938 -39.070312 18.3125 -36.703125 15.566406 -32.203125 L 15.566406 -38.460938 L 6.105469 -38.460938 L 6.105469 0 Z M 15.566406 0 "/></g></g></g><g fill="#000000" fill-opacity="1"><g transform="translate(508.413259, 83.624733)"><g><path d="M 17.628906 -39.070312 C 10.148438 -39.070312 5.339844 -33.804688 5.339844 -27.851562 C 5.339844 -21.898438 8.929688 -19.230469 13.125 -17.472656 C 17.78125 -15.492188 22.738281 -14.804688 22.738281 -11.597656 C 22.738281 -8.773438 20.910156 -7.476562 18.007812 -7.476562 C 14.269531 -7.476562 11.675781 -10.074219 10.300781 -13.8125 L 2.746094 -9.765625 C 4.65625 -5.035156 9.996094 0.609375 18.007812 0.609375 C 26.324219 0.609375 31.667969 -5.265625 31.667969 -12.210938 C 31.667969 -20.449219 23.046875 -22.128906 17.78125 -24.035156 C 15.492188 -24.875 14.117188 -26.097656 14.117188 -27.777344 C 14.117188 -29.914062 15.796875 -30.980469 17.628906 -30.980469 C 19.765625 -30.980469 22.28125 -29.914062 24.035156 -27.625 L 29.683594 -32.8125 C 27.316406 -36.550781 22.816406 -39.070312 17.628906 -39.070312 Z M 17.628906 -39.070312 "/></g></g></g><g fill="#000000" fill-opacity="1"><g transform="translate(543.209622, 83.624733)"><g><path d="M 39.679688 -20.070312 C 39.679688 -28.460938 34.566406 -39.070312 21.746094 -39.070312 C 8.546875 -39.070312 3.28125 -28.308594 3.28125 -19.230469 C 3.28125 -10.148438 8.546875 0.609375 21.746094 0.609375 C 31.058594 0.609375 36.246094 -3.816406 39.222656 -10.605469 L 31.589844 -13.429688 C 29.300781 -9.460938 26.632812 -7.476562 22.28125 -7.476562 C 16.40625 -7.476562 13.429688 -11.902344 13.203125 -16.175781 L 39.679688 -16.175781 Z M 21.746094 -30.980469 C 26.785156 -30.980469 29.148438 -27.472656 29.988281 -23.65625 L 13.429688 -23.65625 C 14.117188 -27.316406 16.941406 -30.980469 21.746094 -30.980469 Z M 21.746094 -30.980469 "/></g></g></g></svg>